<?xml version="1.0" standalone="no"?>
<!DOCTYPE svg PUBLIC "-//W3C//DTD SVG 20010904//EN"
 "http://www.w3.org/TR/2001/REC-SVG-20010904/DTD/svg10.dtd">
<svg version="1.0" xmlns="http://www.w3.org/2000/svg"
 width="700.000000pt" height="700.000000pt" viewBox="0 0 700.000000 700.000000"
 preserveAspectRatio="xMidYMid meet">
<metadata>
Created by potrace 1.14, written by Peter Selinger 2001-2017
</metadata>
<g transform="translate(0.000000,700.000000) scale(0.100000,-0.100000)"
fill="#000000" stroke="none">
<path d="M1915 5341 c-60 -15 -133 -61 -179 -112 -26 -28 -44 -54 -42 -56 3
-3 26 3 53 13 46 18 113 19 1618 19 l1570 0 65 -31 c104 -50 168 -125 195
-229 13 -51 15 -183 15 -992 l0 -933 70 0 70 0 -2 1038 -3 1037 -22 47 c-30
66 -102 139 -170 174 l-58 29 -1575 2 c-866 0 -1588 -2 -1605 -6z"/>
<path d="M1473 5301 c-95 -87 -162 -203 -188 -328 -22 -101 -22 -3125 0 -3226
26 -124 98 -249 188 -327 54 -47 152 -101 222 -123 l70 -22 1105 0 1105 0 70
22 c96 30 179 84 275 176 82 78 95 97 36 52 -45 -34 -150 -80 -214 -94 -37 -8
-373 -11 -1131 -11 -1045 0 -1080 1 -1156 20 -166 43 -302 152 -374 302 -21
46 -44 107 -50 136 -8 37 -11 529 -11 1625 0 1737 -3 1637 64 1764 19 35 31
63 27 63 -3 0 -20 -14 -38 -29z"/>
<path d="M4494 2780 c-66 -13 -135 -54 -187 -109 -26 -27 -47 -54 -47 -59 0
-5 24 -1 53 9 47 16 92 18 442 19 l391 0 74 75 74 75 -379 -1 c-209 -1 -399
-5 -421 -9z"/>
<path d="M4014 2712 c-66 -67 -114 -140 -147 -228 -21 -57 -22 -73 -25 -446
l-3 -388 70 0 71 0 0 418 c0 467 5 508 65 626 19 38 33 71 31 73 -2 2 -30 -23
-62 -55z"/>
</g>
</svg>
